<?xml version="1.0" standalone="no"?>
<!DOCTYPE svg PUBLIC "-//W3C//DTD SVG 20010904//EN"
 "http://www.w3.org/TR/2001/REC-SVG-20010904/DTD/svg10.dtd">
<svg version="1.0" xmlns="http://www.w3.org/2000/svg"
 width="700.000000pt" height="700.000000pt" viewBox="0 0 700.000000 700.000000"
 preserveAspectRatio="xMidYMid meet">
<metadata>
Created by potrace 1.14, written by Peter Selinger 2001-2017
</metadata>
<g transform="translate(0.000000,700.000000) scale(0.100000,-0.100000)"
fill="#000000" stroke="none">
<path d="M3389 6995 c-2 -2 -24 -6 -49 -8 -69 -8 -217 -54 -295 -92 -211 -101
-390 -272 -493 -470 -32 -61 -70 -159 -78 -205 -3 -14 -10 -43 -16 -65 -8 -27
-12 -237 -12 -664 l-1 -624 -217 -216 c-119 -119 -222 -229 -228 -246 -6 -16
-9 -44 -5 -62 6 -35 56 -83 86 -83 13 0 19 -7 20 -22 0 -13 2 -32 4 -43 2 -11
6 -45 10 -75 22 -177 72 -301 180 -445 28 -38 311 -331 629 -649 l576 -579
373 375 c354 357 373 375 393 361 36 -23 86 -24 123 -2 36 22 76 100 130 252
52 150 72 272 71 437 -4 312 0 971 4 979 3 5 45 11 93 14 187 12 362 128 469
310 74 126 78 148 80 467 2 309 1 322 -53 357 -24 16 -58 18 -313 19 -157 1
-288 2 -291 3 -4 0 -9 24 -13 52 -24 180 -142 416 -285 571 -209 226 -470 347
-762 354 -70 1 -128 1 -130 -1z"/>
<path d="M770 5582 c-147 -38 -250 -136 -308 -292 -15 -41 -17 -143 -17 -1135
-1 -1148 -2 -1136 44 -1268 11 -32 73 -144 138 -249 65 -105 127 -206 138
-224 11 -18 54 -88 96 -156 42 -68 237 -384 433 -703 197 -319 368 -596 381
-615 50 -77 123 -197 142 -235 39 -77 46 -140 48 -390 2 -263 3 -273 61 -300
40 -19 67 -19 103 0 25 12 61 67 61 92 0 4 241 8 535 8 l536 0 6 -25 c16 -68
96 -106 160 -76 66 32 64 -4 60 909 -2 452 -7 838 -11 857 -30 138 -82 285
-134 379 -80 148 -116 186 -775 847 -642 643 -715 711 -790 729 l-27 7 0 121
c0 66 3 117 6 114 13 -13 83 36 95 66 16 39 19 1090 3 1188 -44 272 -332 437
-584 336 l-65 -27 -63 26 c-81 32 -183 38 -272 16z"/>
<path d="M5575 5585 c-169 -38 -310 -192 -331 -360 -4 -33 -7 -308 -7 -611 0
-515 1 -552 18 -581 17 -30 37 -44 78 -57 15 -5 17 -20 17 -120 l0 -114 -27
-7 c-72 -18 -152 -91 -789 -729 -550 -551 -669 -675 -716 -746 -62 -96 -126
-232 -157 -336 -49 -163 -50 -169 -50 -1022 -1 -734 0 -806 16 -839 17 -37 61
-63 107 -63 31 0 96 55 96 80 0 11 6 22 13 27 6 4 249 8 539 8 l527 0 6 -27
c11 -46 60 -88 105 -88 32 0 83 27 99 52 11 18 15 78 17 273 2 224 4 257 23
315 11 36 31 82 43 103 33 55 466 756 493 797 13 19 78 125 145 235 157 255
326 530 355 575 100 157 272 441 295 487 66 136 64 83 65 1293 2 1004 1 1099
-15 1150 -78 258 -350 384 -599 278 l-44 -18 -66 26 c-75 31 -175 38 -256 19z"/>
</g>
</svg>
